<?xml version="1.0" encoding="UTF-8"?>
<svg id="Layer_2" xmlns="http://www.w3.org/2000/svg" viewBox="0 0 58.18 44.29">
  <defs>
    <style>
      .cls-1 {
        fill: #231f20;
      }
    </style>
  </defs>
  <g id="Layer_1-2" data-name="Layer_1">
    <path class="cls-1" d="M5.23,0C2.37,0,0,2.38,0,5.26v33.77c0,2.88,2.37,5.25,5.23,5.25h47.73c2.86,0,5.22-2.37,5.22-5.25V5.27C58.18,2.39,55.82,0,52.96,0H5.23ZM5.23,3.66h47.73c.91,0,1.58.69,1.58,1.61v33.77c0,.92-.67,1.61-1.58,1.61H5.23c-.91,0-1.6-.69-1.6-1.61V5.27c0-.92.68-1.61,1.6-1.61h0ZM9.13,7.14h0c-.55-.02-1.09.21-1.45.63-.66.76-.58,1.91.18,2.58l13.18,11.48-13.18,11.47c-.37.32-.59.77-.62,1.26-.03.48.13.96.45,1.33.66.76,1.81.84,2.56.18l13.56-11.82,1.52,1.33c2.16,1.88,5.39,1.88,7.54,0l1.53-1.33,13.56,11.82c.76.66,1.9.58,2.56-.18.32-.37.48-.85.45-1.33-.03-.49-.26-.94-.62-1.26l-13.18-11.47,13.18-11.48c.75-.67.83-1.82.17-2.58-.66-.76-1.8-.85-2.56-.19l-17.46,15.23c-.81.71-1.98.71-2.79,0l-2.72-2.38s0,0,0,0L10.24,7.59h0c-.31-.27-.7-.43-1.11-.44h0Z"/>
  </g>
</svg>