<svg width="322" height="47" viewBox="0 0 322 47" fill="none" xmlns="http://www.w3.org/2000/svg">
<g filter="url(#filter0_d_30_2)">
<path d="M24.9538 16.3417V29.9502H21.879L20.7402 27.4449C19.1839 29.4567 17.1531 30.4627 14.6477 30.4627C10.7758 30.4627 8.02375 29.3239 6.39148 27.0463C4.79718 24.7307 4.00003 21.2954 4.00003 16.7402C4.00003 12.1471 4.81616 8.74972 6.44842 6.54806C8.08069 4.3464 10.9846 3.24557 15.1602 3.24557C18.3488 3.24557 20.6074 3.89088 21.936 5.18151C23.2646 6.43418 24.0617 8.33216 24.3274 10.8755L19.2029 11.6726C19.051 9.73667 18.6714 8.29421 18.0641 7.34521C17.4947 6.39622 16.4128 5.92173 14.8185 5.92173C13.2622 5.92173 12.1424 6.73786 11.4591 8.37012C10.7758 9.96443 10.4342 12.7165 10.4342 16.6264C10.4342 20.4982 10.7379 23.3262 11.3452 25.1103C11.9905 26.8944 13.1103 27.7865 14.7047 27.7865C16.299 27.7865 17.4757 27.2361 18.2349 26.1352C19.0321 24.9965 19.4496 23.0226 19.4876 20.2135V19.4164H15.5587V16.3417H24.9538ZM33.4413 9.45197L36.0036 13.0392C37.5599 10.5338 39.7236 9.28116 42.4947 9.28116V13.7794C40.4069 13.7794 38.9455 14.0641 38.1103 14.6335C37.3132 15.2029 36.9146 16.0759 36.9146 17.2527V29.9502H30.5374V9.45197H33.4413ZM56.4475 27.5587C54.8532 29.4947 52.7275 30.4627 50.0703 30.4627C48.2862 30.4627 46.8437 29.9502 45.7429 28.9253C44.68 27.8624 44.1486 26.4389 44.1486 24.6548C44.1486 22.8707 44.7749 21.5231 46.0276 20.6121C47.2803 19.6631 49.406 18.9229 52.4048 18.3915L55.9351 17.7082V15.6584C55.9351 13.2669 55.081 12.0712 53.3728 12.0712C51.4748 12.0712 50.4499 13.6086 50.2981 16.6833L45.0596 16.057C45.2874 13.6275 46.0276 11.8434 47.2803 10.7046C48.5329 9.52789 50.6207 8.93952 53.5436 8.93952C59.3514 8.93952 62.2554 11.312 62.2554 16.057V29.9502H58.0418L56.4475 27.5587ZM49.7856 24.484C49.7856 26.2681 50.7536 27.1602 52.6895 27.1602C53.7144 27.1602 54.7963 26.5528 55.9351 25.3381V20.2705L53.3728 20.7829C50.9813 21.3144 49.7856 22.5481 49.7856 24.484ZM72.5759 10.8185C74.3979 9.56585 76.201 8.93952 77.9851 8.93952C83.8309 8.93952 86.7538 12.5267 86.7538 19.7011C86.7538 26.8755 83.8499 30.4627 78.0421 30.4627C76.7894 30.4627 75.5177 30.3298 74.2271 30.0641V37.7509L67.8499 38.605V9.45197H70.8107L72.5759 10.8185ZM74.2271 27.2171C74.6826 27.293 75.3659 27.331 76.2769 27.331C79.048 27.331 80.4335 24.8636 80.4335 19.9288C80.4335 14.9941 78.9721 12.5267 76.0492 12.5267C75.5937 12.5267 74.9863 12.6406 74.2271 12.8683V27.2171ZM97.7271 10.4769C99.6251 9.45198 101.561 8.93952 103.535 8.93952C105.547 8.93952 107.084 9.56585 108.147 10.8185C109.248 12.0332 109.798 13.6086 109.798 15.5445V29.9502H103.478V16.3417C103.478 14.9751 103.307 14.0071 102.966 13.4377C102.624 12.8304 101.922 12.5267 100.859 12.5267C99.8339 12.5267 98.79 12.8873 97.7271 13.6086V29.9502H91.3499V3.13169L97.7271 2.33454V10.4769ZM121.158 6.54806C120.436 7.23133 119.544 7.57297 118.482 7.57297C117.457 7.57297 116.565 7.21235 115.805 6.49112C115.084 5.73193 114.724 4.83988 114.724 3.81496C114.724 2.75209 115.084 1.86004 115.805 1.13881C116.527 0.379614 117.419 1.71661e-05 118.482 1.71661e-05C119.544 1.71661e-05 120.436 0.379614 121.158 1.13881C121.879 1.86004 122.24 2.77107 122.24 3.8719C122.24 4.93477 121.879 5.82683 121.158 6.54806ZM121.67 29.9502H115.293V9.45197H121.67V29.9502ZM135.862 12.0712C134.685 12.0712 133.869 12.6216 133.413 13.7224C132.958 14.7853 132.73 16.7782 132.73 19.7011C132.73 22.586 132.958 24.5789 133.413 25.6797C133.907 26.7806 134.723 27.331 135.862 27.331C137.76 27.331 138.728 25.6228 138.766 22.2064L144.061 22.4342C143.909 25.1293 143.188 27.1412 141.897 28.4698C140.645 29.7984 138.519 30.4627 135.52 30.4627C133.66 30.4627 132.104 30.178 130.851 29.6086C127.89 28.28 126.41 24.9775 126.41 19.7011C126.41 16.5125 126.941 14.0071 128.004 12.1851C129.295 10.0214 131.8 8.93952 135.52 8.93952C138.481 8.93952 140.588 9.56585 141.84 10.8185C143.131 12.0712 143.852 13.9882 144.004 16.5694L138.766 17.1388C138.728 13.7604 137.76 12.0712 135.862 12.0712ZM158.1 3.75802H167.552C170.968 3.75802 173.549 4.59314 175.296 6.26336C177.383 8.23727 178.427 11.7675 178.427 16.8541C178.427 21.0297 177.649 24.2562 176.093 26.5338C174.574 28.8114 171.727 29.9502 167.552 29.9502H158.1V3.75802ZM164.534 27.6157H166.527C167.969 27.6157 169.089 27.1032 169.886 26.0783C170.721 25.0154 171.272 23.7628 171.538 22.3203C171.803 20.8399 171.936 19.0178 171.936 16.8541C171.936 14.6904 171.803 12.8873 171.538 11.4449C171.272 9.96443 170.721 8.71176 169.886 7.68685C169.089 6.62398 167.969 6.09254 166.527 6.09254H164.534V27.6157ZM200.358 20.5552H188.23C188.23 23.1364 188.515 24.9205 189.084 25.9075C189.653 26.8565 190.546 27.331 191.76 27.331C193.81 27.331 194.835 26.2112 194.835 23.9715L200.073 24.0854C199.884 26.0593 199.143 27.6157 197.853 28.7545C196.562 29.8933 194.304 30.4627 191.077 30.4627C187.888 30.4627 185.554 29.5706 184.073 27.7865C182.631 26.0024 181.91 23.3073 181.91 19.7011C181.91 12.5267 185.022 8.93952 191.248 8.93952C197.321 8.93952 200.358 12.5836 200.358 19.8719V20.5552ZM194.209 17.4235C194.133 15.5635 193.867 14.2159 193.412 13.3808C192.994 12.5077 192.292 12.0712 191.305 12.0712C190.356 12.0712 189.653 12.4508 189.198 13.21C188.78 13.9312 188.496 15.3357 188.344 17.4235H194.209ZM213.003 16.8541L214.712 17.4804C216.685 18.0498 218.185 18.828 219.21 19.815C220.235 20.8019 220.747 22.2634 220.747 24.1993C220.747 26.0973 219.95 27.6157 218.356 28.7545C216.799 29.8933 214.674 30.4627 211.978 30.4627C209.283 30.4627 207.233 29.9122 205.829 28.8114C204.462 27.6726 203.608 26.0024 203.267 23.8007L208.505 23.0605C208.619 24.3891 209.018 25.433 209.701 26.1922C210.384 26.9514 211.276 27.331 212.377 27.331C214.389 27.331 215.395 26.7046 215.395 25.452C215.395 24.1613 213.952 23.1175 211.067 22.3203L209.245 21.7509C207.347 21.2195 205.924 20.4603 204.975 19.4733C204.064 18.4484 203.608 16.987 203.608 15.089C203.608 13.153 204.368 11.6536 205.886 10.5908C207.442 9.48993 209.511 8.93952 212.092 8.93952C214.674 8.93952 216.647 9.48993 218.014 10.5908C219.381 11.6916 220.235 13.3239 220.576 15.4876L215.281 16.1708C215.053 13.4377 213.895 12.0712 211.808 12.0712C209.91 12.0712 208.961 12.6785 208.961 13.8933C208.961 14.6145 209.302 15.2029 209.986 15.6584C210.669 16.0759 211.675 16.4745 213.003 16.8541ZM230.783 6.54806C230.061 7.23133 229.169 7.57297 228.107 7.57297C227.082 7.57297 226.19 7.21235 225.43 6.49112C224.709 5.73193 224.349 4.83988 224.349 3.81496C224.349 2.75209 224.709 1.86004 225.43 1.13881C226.152 0.379614 227.044 1.71661e-05 228.107 1.71661e-05C229.169 1.71661e-05 230.061 0.379614 230.783 1.13881C231.504 1.86004 231.865 2.77107 231.865 3.8719C231.865 4.93477 231.504 5.82683 230.783 6.54806ZM231.295 29.9502H224.918V9.45197H231.295V29.9502ZM255.793 11.9004H253.003C253.838 13.0771 254.255 14.6714 254.255 16.6833C254.255 18.6572 253.61 20.3844 252.319 21.8648C251.029 23.3073 248.77 24.0285 245.544 24.0285C244.025 24.0285 242.735 23.8577 241.672 23.516L240.533 24.5979C239.964 25.0534 239.679 25.4899 239.679 25.9075C239.679 26.4769 240.077 26.7616 240.875 26.7616H248.618C250.744 26.7616 252.414 27.312 253.629 28.4128C254.844 29.4757 255.451 30.8612 255.451 32.5694C255.451 36.6311 251.997 38.6619 245.088 38.6619C238.787 38.6619 235.636 36.9158 235.636 33.4235C235.636 32.6643 235.921 31.9241 236.49 31.2029C237.098 30.4816 237.8 30.0071 238.597 29.7794C236.889 29.3618 236.035 28.261 236.035 26.4769C236.035 25.1863 236.604 23.9905 237.743 22.8897L238.882 21.8078C237.667 20.4793 237.06 18.7331 237.06 16.5694C237.06 14.4057 237.686 12.6026 238.939 11.1602C240.229 9.67973 242.431 8.93952 245.544 8.93952C246.91 8.93952 248.201 9.11034 249.416 9.45197H255.793V11.9004ZM243.095 16.4555C243.095 18.0498 243.266 19.2076 243.608 19.9288C243.949 20.6121 244.614 20.9538 245.601 20.9538C246.588 20.9538 247.271 20.6121 247.65 19.9288C248.03 19.2456 248.22 18.1068 248.22 16.5125C248.22 14.8802 248.03 13.7224 247.65 13.0392C247.271 12.3559 246.588 12.0143 245.601 12.0143C244.614 12.0143 243.949 12.3559 243.608 13.0392C243.266 13.7224 243.095 14.8612 243.095 16.4555ZM246.625 29.9502H242.64C241.615 30.8992 241.102 31.9621 241.102 33.1388C241.102 34.6952 242.431 35.4733 245.088 35.4733C248.353 35.4733 249.985 34.5813 249.985 32.7972C249.985 31.9241 249.681 31.2218 249.074 30.6904C248.504 30.1969 247.688 29.9502 246.625 29.9502ZM264.923 11.274C267.239 9.71769 269.516 8.93952 271.756 8.93952C273.995 8.93952 275.647 9.56585 276.71 10.8185C277.81 12.0332 278.361 13.6086 278.361 15.5445V29.9502H272.041V16.3417C272.041 15.0131 271.87 14.0451 271.528 13.4377C271.186 12.8304 270.484 12.5267 269.421 12.5267C268.396 12.5267 267.352 12.8873 266.29 13.6086V29.9502H259.912V9.45197H262.816L264.923 11.274ZM301.108 20.5552H288.98C288.98 23.1364 289.265 24.9205 289.834 25.9075C290.403 26.8565 291.296 27.331 292.51 27.331C294.56 27.331 295.585 26.2112 295.585 23.9715L300.823 24.0854C300.634 26.0593 299.893 27.6157 298.603 28.7545C297.312 29.8933 295.054 30.4627 291.827 30.4627C288.638 30.4627 286.304 29.5706 284.823 27.7865C283.381 26.0024 282.66 23.3073 282.66 19.7011C282.66 12.5267 285.772 8.93952 291.998 8.93952C298.071 8.93952 301.108 12.5836 301.108 19.8719V20.5552ZM294.959 17.4235C294.883 15.5635 294.617 14.2159 294.162 13.3808C293.744 12.5077 293.042 12.0712 292.055 12.0712C291.106 12.0712 290.403 12.4508 289.948 13.21C289.53 13.9312 289.246 15.3357 289.094 17.4235H294.959ZM308.629 9.45197L311.191 13.0392C312.747 10.5338 314.911 9.28116 317.682 9.28116V13.7794C315.594 13.7794 314.133 14.0641 313.298 14.6335C312.501 15.2029 312.102 16.0759 312.102 17.2527V29.9502H305.725V9.45197H308.629Z" fill="black"/>
</g>
<defs>
<filter id="filter0_d_30_2" x="0" y="0" width="321.682" height="46.6619" filterUnits="userSpaceOnUse" color-interpolation-filters="sRGB">
<feFlood flood-opacity="0" result="BackgroundImageFix"/>
<feColorMatrix in="SourceAlpha" type="matrix" values="0 0 0 0 0 0 0 0 0 0 0 0 0 0 0 0 0 0 127 0" result="hardAlpha"/>
<feOffset dy="4"/>
<feGaussianBlur stdDeviation="2"/>
<feComposite in2="hardAlpha" operator="out"/>
<feColorMatrix type="matrix" values="0 0 0 0 0 0 0 0 0 0 0 0 0 0 0 0 0 0 0.25 0"/>
<feBlend mode="normal" in2="BackgroundImageFix" result="effect1_dropShadow_30_2"/>
<feBlend mode="normal" in="SourceGraphic" in2="effect1_dropShadow_30_2" result="shape"/>
</filter>
</defs>
</svg>
