<?xml version="1.0" encoding="UTF-8"?>
<svg id="Layer_2" xmlns="http://www.w3.org/2000/svg" viewBox="0 0 49 49">
  <defs>
    <style>
      .cls-1 {
        fill: #231f20;
      }
    </style>
  </defs>
  <g id="Layer_1-2" data-name="Layer_1">
    <path class="cls-1" d="M44.03,9.77c-.04-.05-.08-.11-.12-.16C39.29,3.55,32.11,0,24.5,0S9.7,3.55,5.08,9.61c-.05.05-.08.11-.12.16-6.63,8.7-6.63,20.76,0,29.46.04.05.07.11.12.16,4.62,6.07,11.82,9.62,19.45,9.61,7.63,0,14.81-3.59,19.42-9.66.09-.09.16-.19.22-.3,6.49-8.7,6.43-20.64-.15-29.27ZM42.03,12.98c1.93,2.92,3.09,6.28,3.37,9.77h-10.44c-.08-2.61-.33-5.2-.77-7.77,2.67-.43,5.29-1.1,7.84-2ZM39.72,10.07c-2.04.65-4.13,1.14-6.24,1.48-.59-2.49-1.52-4.89-2.78-7.11,3.44,1.07,6.55,3.02,9.02,5.64ZM17.53,22.75c.06-2.46.3-4.92.71-7.35,2.08.22,4.17.34,6.25.35,2.09-.01,4.18-.13,6.25-.35.41,2.43.65,4.89.71,7.35h-13.93ZM31.46,26.25c-.06,2.46-.3,4.92-.71,7.35-4.16-.42-8.35-.42-12.51,0-.41-2.43-.65-4.89-.71-7.35h13.93ZM24.5,3.5c1.81,0,4.05,3.06,5.51,8.46-3.66.34-7.35.34-11.01,0,1.45-5.4,3.7-8.46,5.5-8.46ZM18.3,4.44c-1.26,2.23-2.2,4.62-2.78,7.11-2.11-.34-4.2-.83-6.24-1.47,2.47-2.62,5.58-4.57,9.02-5.64ZM6.96,12.98c2.55.9,5.17,1.57,7.84,2-.44,2.57-.69,5.17-.77,7.78H3.59c.29-3.49,1.45-6.85,3.37-9.77ZM6.96,36.02c-1.93-2.92-3.09-6.28-3.37-9.77h10.44c.08,2.61.33,5.2.77,7.77-2.67.43-5.29,1.1-7.84,2ZM9.27,38.92c2.04-.65,4.13-1.14,6.24-1.48.59,2.49,1.52,4.89,2.78,7.11-3.44-1.07-6.55-3.02-9.02-5.64ZM24.5,45.5c-1.81,0-4.05-3.06-5.51-8.46,3.66-.34,7.35-.34,11.01,0-1.45,5.4-3.7,8.46-5.5,8.46ZM30.7,44.56h0c1.26-2.23,2.2-4.62,2.78-7.11,2.11.34,4.2.83,6.24,1.47-2.47,2.62-5.58,4.57-9.02,5.64ZM42.03,36.02c-2.55-.9-5.17-1.57-7.84-2,.44-2.57.69-5.17.77-7.78h10.44c-.29,3.49-1.45,6.85-3.37,9.77Z"/>
  </g>
</svg>